{
  "accessors": [
    {
      "bufferView": 2,
      "componentType": 5126,
      "count": 1142,
      "max": [
        1.7278419733047485,
        0.12345600128173828,
        8.613250732421875
      ],
      "min": [
        -1.7278419733047485,
        -0.67794400453567505,
        8.0782203674316406
      ],
      "type": "VEC3"
    },
    {
      "bufferView": 2,
      "byteOffset": 13704,
      "componentType": 5126,
      "count": 1142,
      "max": [
        1,
        1,
        1
      ],
      "min": [
        -1,
        -0.99474883079528809,
        -0.99879390001296997
      ],
      "type": "VEC3"
    },
    {
      "bufferView": 1,
      "componentType": 5126,
      "count": 1142,
      "max": [
        0.74650001525878906,
        0.74080002307891846
      ],
      "min": [
        0.69230002164840698,
        0.68660002946853638
      ],
      "type": "VEC2"
    },
    {
      "bufferView": 0,
      "componentType": 5125,
      "count": 1710,
      "max": [
        1141
      ],
      "min": [
        0
      ],
      "type": "SCALAR"
    },
    {
      "bufferView": 2,
      "byteOffset": 27408,
      "componentType": 5126,
      "count": 312,
      "max": [
        0.21115699410438538,
        0.18861499428749084,
        8.1756296157836914
      ],
      "min": [
        -0.15578199923038483,
        -0.17307199537754059,
        0.026864999905228615
      ],
      "type": "VEC3"
    },
    {
      "bufferView": 2,
      "byteOffset": 31152,
      "componentType": 5126,
      "count": 312,
      "max": [
        0.92387664318084717,
        0.92387193441390991,
        1
      ],
      "min": [
        -0.92387586832046509,
        -0.92381197214126587,
        -1
      ],
      "type": "VEC3"
    },
    {
      "bufferView": 1,
      "byteOffset": 9136,
      "componentType": 5126,
      "count": 312,
      "max": [
        0.36700001358985901,
        0.77579998970031738
      ],
      "min": [
        0.31940001249313354,
        0.72820001840591431
      ],
      "type": "VEC2"
    },
    {
      "bufferView": 0,
      "byteOffset": 6840,
      "componentType": 5125,
      "count": 468,
      "max": [
        311
      ],
      "min": [
        0
      ],
      "type": "SCALAR"
    },
    {
      "bufferView": 2,
      "byteOffset": 34896,
      "componentType": 5126,
      "count": 48,
      "max": [
        0.12434499710798264,
        0.13211600482463837,
        8.1592435836791992
      ],
      "min": [
        -0.12434499710798264,
        -0.1165739968419075,
        7.2880687713623047
      ],
      "type": "VEC3"
    },
    {
      "bufferView": 2,
      "byteOffset": 35472,
      "componentType": 5126,
      "count": 48,
      "max": [
        0.92363005876541138,
        0.92363005876541138,
        1
      ],
      "min": [
        -0.92363005876541138,
        -0.92363005876541138,
        -1
      ],
      "type": "VEC3"
    },
    {
      "bufferView": 1,
      "byteOffset": 11632,
      "componentType": 5126,
      "count": 48,
      "max": [
        0.74419999122619629,
        0.76289999485015869
      ],
      "min": [
        0.69459998607635498,
        0.71329998970031738
      ],
      "type": "VEC2"
    },
    {
      "bufferView": 0,
      "byteOffset": 8712,
      "componentType": 5125,
      "count": 84,
      "max": [
        47
      ],
      "min": [
        0
      ],
      "type": "SCALAR"
    }
  ],
  "asset": {
    "extras": {
      "author": "anuB_Bios Corp (https://sketchfab.com/anuB_Bios)",
      "license": "CC-BY-4.0 (http://creativecommons.org/licenses/by/4.0/)",
      "source": "https://sketchfab.com/3d-models/cartoon-rake-low-poly-e768b8fdddfe48b8b12a5d4efbc47d53",
      "title": "cartoon rake low poly"
    },
    "generator": "Sketchfab-8.91.1",
    "version": "2.0"
  },
  "bufferViews": [
    {
      "buffer": 0,
      "byteLength": 9048,
      "byteOffset": 0,
      "name": "floatBufferViews",
      "target": 34963
    },
    {
      "buffer": 0,
      "byteLength": 12016,
      "byteOffset": 9048,
      "byteStride": 8,
      "name": "floatBufferViews",
      "target": 34962
    },
    {
      "buffer": 0,
      "byteLength": 36048,
      "byteOffset": 21064,
      "byteStride": 12,
      "name": "floatBufferViews",
      "target": 34962
    }
  ],
  "buffers": [
    {
      "byteLength": 57112,
      "uri": "scene.bin"
    }
  ],
  "images": [
    {
      "uri": "textures/grb1_baseColor.png"
    }
  ],
  "materials": [
    {
      "doubleSided": true,
      "emissiveFactor": [
        0,
        0,
        0
      ],
      "name": "grb1",
      "pbrMetallicRoughness": {
        "baseColorFactor": [
          1,
          1,
          1,
          1
        ],
        "baseColorTexture": {
          "index": 0,
          "texCoord": 0
        },
        "metallicFactor": 0.47499999999999998,
        "roughnessFactor": 0.84349154199267129
      }
    },
    {
      "doubleSided": true,
      "emissiveFactor": [
        0,
        0,
        0
      ],
      "name": "grb2",
      "pbrMetallicRoughness": {
        "baseColorFactor": [
          1,
          1,
          1,
          1
        ],
        "baseColorTexture": {
          "index": 0,
          "texCoord": 0
        },
        "metallicFactor": 0,
        "roughnessFactor": 0.84349154199267129
      }
    },
    {
      "doubleSided": true,
      "emissiveFactor": [
        0,
        0,
        0
      ],
      "name": "grb3",
      "pbrMetallicRoughness": {
        "baseColorFactor": [
          1,
          1,
          1,
          1
        ],
        "baseColorTexture": {
          "index": 0,
          "texCoord": 0
        },
        "metallicFactor": 0.47488584474885842,
        "roughnessFactor": 0.84349154199267129
      }
    }
  ],
  "meshes": [
    {
      "primitives": [
        {
          "attributes": {
            "NORMAL": 1,
            "POSITION": 0,
            "TEXCOORD_0": 2
          },
          "indices": 3,
          "material": 0,
          "mode": 4
        }
      ]
    },
    {
      "primitives": [
        {
          "attributes": {
            "NORMAL": 5,
            "POSITION": 4,
            "TEXCOORD_0": 6
          },
          "indices": 7,
          "material": 1,
          "mode": 4
        }
      ]
    },
    {
      "primitives": [
        {
          "attributes": {
            "NORMAL": 9,
            "POSITION": 8,
            "TEXCOORD_0": 10
          },
          "indices": 11,
          "material": 2,
          "mode": 4
        }
      ]
    }
  ],
  "nodes": [
    {
      "children": [
        1
      ],
      "name": "RootNode (gltf orientation matrix)",
      "rotation": [
        -0.70710678118654746,
        -0,
        -0,
        0.70710678118654757
      ]
    },
    {
      "children": [
        2
      ],
      "name": "RootNode (model correction matrix)"
    },
    {
      "children": [
        3,
        4,
        5
      ],
      "name": "grably.obj.cleaner.materialmerger.gles"
    },
    {
      "mesh": 0,
      "name": ""
    },
    {
      "mesh": 1,
      "name": ""
    },
    {
      "mesh": 2,
      "name": ""
    }
  ],
  "samplers": [
    {
      "magFilter": 9729,
      "minFilter": 9987,
      "wrapS": 10497,
      "wrapT": 10497
    }
  ],
  "scene": 0,
  "scenes": [
    {
      "name": "OSG_Scene",
      "nodes": [
        0
      ]
    }
  ],
  "textures": [
    {
      "sampler": 0,
      "source": 0
    }
  ]
}

